<svg id="Layer_1" data-name="Layer 1" xmlns="http://www.w3.org/2000/svg" viewBox="0 0 430.14 800"><defs><style>.cls-1{fill:#fff;}</style></defs><path class="cls-1" d="M597,630.86h-3v-1.68h8.11v1.68h-3v8.41H597Zm16.18.44h0l-3,8h-1.37l-3-8h0v8h-2v-10.1h2.93l2.75,7.15,2.74-7.15h2.91v10.1h-1.94Z" transform="translate(-184.93 0)"/><path class="cls-1" d="M327.15,424.36s-21,12.2,14.92,16.32c43.48,5,65.71,4.25,113.62-4.82a197.55,197.55,0,0,0,30.2,14.74c-107.42,46-243.12-2.66-158.74-26.24M314,364.29s-23.52,17.4,12.4,21.12c46.45,4.79,83.13,5.18,146.61-7a65.11,65.11,0,0,0,22.58,13.77c-129.88,38-274.54,3-181.59-27.85" transform="translate(-184.93 0)"/><path class="cls-1" d="M424.68,262.37c26.47,30.48-7,57.9-7,57.9s67.21-34.69,36.34-78.14c-28.82-40.52-50.93-60.64,68.75-130,0,0-187.85,46.91-98.13,150.29" transform="translate(-184.93 0)"/><path class="cls-1" d="M566.75,468.8s15.52,12.79-17.09,22.68c-62,18.78-258.07,24.45-312.53.75-19.58-8.52,17.13-20.34,28.68-22.82,12.05-2.62,18.93-2.13,18.93-2.13C263,451.94,144,497.4,224.31,510.42c219,35.52,399.25-16,342.44-41.62M337.23,302s-99.73,23.69-35.32,32.29c27.2,3.64,81.42,2.82,131.92-1.42C475.1,329.43,516.55,322,516.55,322s-14.56,6.23-25.09,13.42c-101.27,26.64-296.92,14.25-240.59-13,47.63-23,86.36-20.41,86.36-20.41m178.9,100c103-53.5,55.36-104.91,22.13-98a76.62,76.62,0,0,0-11.77,3.16,18.75,18.75,0,0,1,8.79-6.78c65.73-23.11,116.28,68.15-21.22,104.3a9,9,0,0,0,2.07-2.7" transform="translate(-184.93 0)"/><path class="cls-1" d="M454.06,0s57,57-54.07,144.74C310.9,215.09,379.67,255.2,400,301c-52-46.92-90.16-88.22-64.56-126.66C373,118,477.07,90.6,454.06,0" transform="translate(-184.93 0)"/><path class="cls-1" d="M347.35,547c98.82,6.33,250.56-3.51,254.16-50.26,0,0-6.91,17.72-81.67,31.8-84.35,15.87-188.37,14-250.07,3.85,0,0,12.63,10.45,77.58,14.61" transform="translate(-184.93 0)"/><path class="cls-1" d="M331.15,725.67c-9.32,8.09-19.17,12.63-28,12.63-12.61,0-19.43-7.57-19.43-19.7,0-13.12,7.3-22.71,36.59-22.71h10.84v29.78m25.72,29V664.86c0-23-13.09-38.1-44.64-38.1a117.6,117.6,0,0,0-47.68,10.35L268.33,653c10.33-3.79,23.7-7.32,36.82-7.32,18.18,0,26,7.32,26,22.45v11.36h-9.07c-44.17,0-64.1,17.14-64.1,42.88,0,22.21,13.13,34.83,37.86,34.83,15.89,0,27.75-6.56,38.84-16.16l2,13.64Zm85.85,0H410.64L372,629h28L424,706.24l5.33,23.22c12.12-33.57,20.69-67.63,25-100.42h27.25c-7.3,41.37-20.44,86.79-38.84,125.65m123.07-29c-9.34,8.09-19.2,12.63-28,12.63-12.59,0-19.42-7.57-19.42-19.7,0-13.12,7.32-22.71,36.61-22.71h10.85v29.78m25.72,29V664.86c0-23-13.12-38.1-44.64-38.1a117.61,117.61,0,0,0-47.69,10.35L503,653c10.33-3.79,23.72-7.32,36.83-7.32,18.17,0,26,7.32,26,22.45v11.36H556.7c-44.18,0-64.1,17.14-64.1,42.88,0,22.21,13.12,34.83,37.84,34.83,15.9,0,27.76-6.56,38.87-16.16l2,13.64ZM229.78,776c-7.34,10.71-19.18,19.18-32.15,24l-12.7-15c9.87-5.06,18.34-13.24,22.27-20.86,3.4-6.77,4.81-15.5,4.81-36.38V584.35h27.33V725.84c0,27.92-2.23,39.19-9.56,50.19" transform="translate(-184.93 0)"/></svg>