<svg id="Layer_1" data-name="Layer 1" xmlns="http://www.w3.org/2000/svg" viewBox="0 0 799.89 799.1"><defs><style>.cls-1{fill:#fff;}</style></defs><path class="cls-1" d="M727.35,41.53a365.19,365.19,0,0,1-42.7,75.77A401.35,401.35,0,0,0,401.05,0C181,0,0,181,0,401A401,401,0,0,0,124.6,691.52l14.72,13.16a401.79,401.79,0,0,0,258.33,94.4c209.25,0,385-163.8,400-372.4,11-102.23-19.15-231.38-70.32-385ZM181.5,693.87a33.79,33.79,0,0,1-26.57,12.63,34.32,34.32,0,1,1,0-68.63c28.77.13,44.8,33.6,26.57,56Zm544.28-120C626.82,705.6,415.35,661.2,280,667.57c0,0-24.1,1.43-48.3,5.35,0,0,9.12-3.77,20.82-8.32,95.18-33.08,140.11-39.45,197.93-69.15C559.25,540.1,666.92,419,689.32,293.1,647.8,414.32,522.12,518.35,407.67,560.67c-78.37,28.9-220,57-220,57l-5.72-3C85.42,567.82,82.55,359,257.8,291.52c76.7-29.42,150.25-13.27,233.07-32.95,88.55-21.1,191-87.5,232.68-174.1C770.17,223,826.27,439.82,725.77,573.8Z" transform="translate(0 0.02)"/></svg>