<svg id="Capa_1" data-name="Capa 1" xmlns="http://www.w3.org/2000/svg" viewBox="0 0 580.39 800"><defs><style>.cls-1{fill:#fff;}</style></defs><path class="cls-1" d="M402.94,584.05c-29.35,0-46.29,28.8-46.29,64.36-.29,36.14,17.22,63.81,46,63.81,29.07,0,46-27.39,46-64.64C448.68,612.85,432.31,584.05,402.94,584.05Z" transform="translate(-109.8)"/><path class="cls-1" d="M690,191.71a15.48,15.48,0,0,0-3.73-10.16L532.06,5.37s-.09-.07-.12-.12a16.19,16.19,0,0,0-3.11-2.62c-.34-.21-.69-.41-1-.61a16,16,0,0,0-3.1-1.29c-.27-.09-.55-.21-.84-.28A15.35,15.35,0,0,0,520.26,0H141.18A31.42,31.42,0,0,0,109.8,31.37V768.63A31.41,31.41,0,0,0,141.18,800H658.82a31.41,31.41,0,0,0,31.38-31.37V193.47C690.19,192.88,690.1,192.3,690,191.71Zm-476,554.39c-21.75,0-43.2-5.65-53.92-11.59L168.89,699c11.56,5.93,29.36,11.86,47.7,11.86,19.77,0,30.21-8.2,30.21-20.62,0-11.87-9-18.63-31.89-26.81-31.61-11-52.23-28.53-52.23-56.19,0-32.47,27.11-57.31,72-57.31,21.46,0,37.27,4.51,48.56,9.6l-9.61,34.72a90.51,90.51,0,0,0-39.79-9c-18.65,0-27.66,8.46-27.66,18.35,0,12.14,10.72,17.5,35.27,26.81,33.6,12.43,49.42,29.94,49.42,56.76C290.85,719,266.28,746.1,214.06,746.1ZM482.55,776a654.08,654.08,0,0,1-75.09-26.82,42.89,42.89,0,0,0-13.27-2.82c-42.91-2.81-83-34.44-83-96.56,0-57,36.13-99.93,92.87-99.93,58.17,0,90.06,44,90.06,96,0,43.2-20,73.69-45.18,85V732c14.7,4.24,31.07,7.63,46,10.71Zm158.69-32.74H522.38V553h43.2V707.13h75.66ZM141.18,532.68V31.37h363.4V191.89a15.69,15.69,0,0,0,15.68,15.69H658.82l0,325.1Z" transform="translate(-109.8)"/><path class="cls-1" d="M485.28,248.61a17.18,17.18,0,0,0,1.18-5.9c0-25.25-54.57-38.87-105.92-38.87s-105.85,13.62-105.85,38.87a17.33,17.33,0,0,0,1.17,5.92l-.27.49a26.32,26.32,0,0,0-3.51,12.78v31.25a26.23,26.23,0,0,0,4.2,13.79l-.35.6a26.64,26.64,0,0,0-3.84,13.37v31.24a25.84,25.84,0,0,0,4,13.37l-.12.2a26.6,26.6,0,0,0-3.84,13.36v31.25c0,27.77,47.64,49.51,108.45,49.51s108.52-21.74,108.52-49.51V379.08a26.36,26.36,0,0,0-3.87-13.37l-.11-.17a26.12,26.12,0,0,0,4-13.39V320.91a26.43,26.43,0,0,0-3.87-13.39l-.34-.57a26.31,26.31,0,0,0,4.21-13.81V261.89a26.57,26.57,0,0,0-3.51-12.79Zm-7.84,161.71c0,17.94-39.77,37.9-96.9,37.9s-96.85-20-96.85-37.9V380.94c17.81,16.31,54.46,26.72,96.85,26.72s79.09-10.41,96.9-26.74Zm0-58.17c0,17.92-39.77,37.9-96.9,37.9s-96.85-20-96.85-37.9V322.76c17.81,16.31,54.46,26.72,96.85,26.72s79.09-10.41,96.9-26.74Zm0-59c0,17.92-39.77,37.89-96.9,37.89s-96.85-20-96.85-37.89v-26c17.41,14.75,57.77,22.4,96.85,22.4s79.48-7.65,96.9-22.4Z" transform="translate(-109.8)"/></svg>